<svg xmlns="http://www.w3.org/2000/svg" viewBox="0 0 24 24" width="32" height="32">
  <defs>
    <linearGradient id="grad1" x1="0%" y1="0%" x2="100%" y2="100%">
      <stop offset="0%" style="stop-color:#60a5fa;stop-opacity:1" />
      <stop offset="100%" style="stop-color:#2563eb;stop-opacity:1" />
    </linearGradient>
  </defs>
  <path fill="url(#grad1)" d="M19,8a4,4,0,0,0-4-4H15A3.9,3.9,0,0,0,12,6.59,3.9,3.9,0,0,0,9,4H9A4,4,0,0,0,5,8v3a4,4,0,0,0,.69,2.23A4,4,0,0,1,7,16v4a2,2,0,0,0,2,2h0a2,2,0,0,0,2-2V18a1,1,0,0,1,2,0v2a2,2,0,0,0,2,2h0a2,2,0,0,0,2-2V16a4,4,0,0,1,1.31-2.77A4,4,0,0,0,19,11Z"/>
</svg>
